<svg width="93" height="38" viewBox="0 0 93 38" fill="none" xmlns="http://www.w3.org/2000/svg">
<path d="M12.828 29.41C17.543 29.41 21.848 25.105 21.848 18.955C21.848 12.805 17.543 8.49999 12.828 8.49999C8.52303 8.49999 6.47303 11.78 6.47303 11.78H6.26803V0.299988H0.733032V29H6.26803V26.13H6.47303C6.47303 26.13 8.52303 29.41 12.828 29.41ZM11.188 24.285C8.31803 24.285 6.06303 22.03 6.06303 18.955C6.06303 15.88 8.31803 13.625 11.188 13.625C14.058 13.625 16.313 15.88 16.313 18.955C16.313 22.03 14.058 24.285 11.188 24.285Z" fill="black"/>
<path d="M32.5128 29.41C36.4078 29.41 38.4578 26.13 38.4578 26.13H38.6628V29H44.1978V8.90999H38.6628V19.57C38.6628 22.235 36.8178 24.08 34.3578 24.08C32.1028 24.08 30.6678 22.645 30.6678 20.185V8.90999H25.1328V21.005C25.1328 26.13 28.4128 29.41 32.5128 29.41Z" fill="black"/>
<path d="M48.6966 29H54.2316V19.57C54.2316 16.29 56.2816 14.24 58.9466 14.24C60.1766 14.24 60.7916 14.445 60.7916 14.445V8.49999H60.3816C56.4866 8.49999 54.4366 11.78 54.4366 11.78H54.2316V8.90999H48.6966V29Z" fill="black"/>
<path d="M71.4564 37.61C77.8114 37.61 82.3214 33.1 82.3214 26.95V8.90999H76.7864V11.78H76.5814C76.5814 11.78 74.7364 8.49999 70.4314 8.49999C65.9214 8.49999 61.8214 12.6 61.8214 18.545C61.8214 24.49 65.9214 28.59 70.4314 28.59C74.7364 28.59 76.5814 25.31 76.5814 25.31H76.7864V26.95C76.7864 30.23 74.5314 32.485 71.4564 32.485C68.1764 32.485 66.1264 30.025 66.1264 30.025L62.6414 33.51C62.6414 33.51 65.5114 37.61 71.4564 37.61ZM72.0714 23.465C69.4064 23.465 67.3564 21.415 67.3564 18.545C67.3564 15.675 69.4064 13.625 72.0714 13.625C74.7364 13.625 76.7864 15.675 76.7864 18.545C76.7864 21.415 74.7364 23.465 72.0714 23.465Z" fill="black"/>
<path d="M89.0704 29.41C90.9154 29.41 92.3504 27.975 92.3504 26.13C92.3504 24.285 90.9154 22.85 89.0704 22.85C87.2254 22.85 85.7904 24.285 85.7904 26.13C85.7904 27.975 87.2254 29.41 89.0704 29.41Z" fill="black"/>
</svg>
